<?xml version="1.0" standalone="no"?>
<!DOCTYPE svg PUBLIC "-//W3C//DTD SVG 20010904//EN"
 "http://www.w3.org/TR/2001/REC-SVG-20010904/DTD/svg10.dtd">
<svg version="1.0" xmlns="http://www.w3.org/2000/svg"
 width="643.000000pt" height="514.000000pt" viewBox="0 0 643.000000 514.000000"
 preserveAspectRatio="xMidYMid meet">

<g transform="translate(0.000000,514.000000) scale(0.100000,-0.100000)"
fill="#000000" stroke="none">
<path d="M0 2570 l0 -2570 1088 0 1087 0 29 56 c41 78 172 214 270 278 84 56
237 136 366 191 286 123 380 194 380 288 0 78 -74 142 -245 211 -243 98 -351
166 -400 249 -48 82 -43 162 16 250 39 59 113 115 270 202 300 168 354 326
170 503 -64 62 -293 236 -491 372 -74 51 -179 126 -232 167 l-97 73 61 98 c34
53 155 250 268 437 114 187 303 498 419 690 117 193 219 356 226 364 32 33 59
6 166 -164 424 -673 678 -1070 730 -1144 22 -30 39 -59 39 -65 0 -8 -2 -8 -8
0 -4 6 -70 64 -147 129 -77 65 -150 127 -162 138 -37 33 -38 12 -2 -40 93
-136 192 -269 273 -368 191 -231 951 -1090 1031 -1165 l37 -35 -4 63 c-2 34
-3 62 0 62 19 0 844 -428 866 -450 62 -61 40 -165 -44 -214 -35 -21 -47 -21
-972 -24 l-937 -2 -53 46 c-53 48 -159 102 -357 185 -106 43 -171 88 -171 117
0 17 57 77 348 374 l185 188 140 -75 c77 -42 141 -74 142 -73 2 2 -22 57 -53
123 -30 66 -117 270 -193 453 -149 356 -253 578 -295 627 -14 17 -21 22 -16
10 34 -71 54 -277 41 -411 -14 -157 -88 -404 -165 -556 l-26 -52 -45 86 c-51
100 -125 186 -275 322 -59 54 -116 112 -127 129 -62 101 -8 243 114 303 72 35
157 32 235 -9 l52 -27 -53 62 c-113 133 -192 204 -267 242 -40 20 -76 44 -79
53 -7 17 66 241 99 306 44 87 114 74 230 -43 43 -43 78 -73 78 -68 0 12 -109
198 -223 381 -62 99 -82 125 -92 117 -7 -6 -60 -79 -116 -163 -132 -194 -389
-560 -557 -794 -119 -166 -129 -182 -114 -196 9 -7 109 -76 222 -152 447 -302
605 -435 666 -560 54 -112 30 -232 -63 -316 -21 -19 -84 -63 -140 -97 -132
-82 -173 -126 -173 -187 0 -39 6 -52 41 -90 54 -59 138 -99 374 -181 390 -134
550 -224 680 -382 111 -133 149 -253 143 -442 -4 -108 -9 -138 -37 -220 -18
-52 -43 -114 -57 -138 l-25 -42 1181 0 1180 0 -1 2183 c-1 1200 -4 2171 -6
2158 -4 -19 -9 -22 -31 -18 -15 3 -31 -1 -40 -10 -13 -12 -11 -13 9 -10 13 2
18 2 11 0 -7 -3 -10 -9 -7 -14 3 -5 -1 -6 -9 -3 -12 5 -16 0 -16 -20 0 -28 2
-28 -92 -30 -56 -1 -78 -9 -64 -23 4 -4 10 -2 14 4 5 7 12 6 22 -5 13 -14 12
-15 -3 -9 -9 3 -17 2 -17 -4 0 -6 -4 -7 -10 -4 -5 3 -10 -3 -10 -14 0 -18 -6
-21 -40 -21 -33 0 -40 -3 -40 -20 0 -13 -7 -20 -20 -20 -13 0 -22 -9 -26 -25
-7 -28 -34 -56 -34 -35 0 9 -7 7 -21 -6 -12 -10 -30 -18 -40 -16 -14 2 -19 -3
-19 -17 0 -12 -6 -21 -12 -21 -9 0 -8 -4 2 -11 12 -8 10 -9 -7 -4 -17 5 -23 2
-23 -10 0 -12 -6 -16 -20 -12 -16 4 -20 0 -20 -19 0 -23 -2 -24 -79 -24 l-80
0 -3 -37 -3 -38 -57 -3 c-50 -3 -58 -6 -58 -22 0 -18 -7 -20 -56 -20 -47 0
-57 -3 -61 -19 -6 -24 -23 -28 -100 -25 -56 2 -63 0 -63 -17 0 -15 -7 -19 -40
-19 -37 0 -39 -2 -46 -35 -7 -39 -25 -48 -22 -11 1 14 6 22 10 20 4 -3 5 3 1
12 -6 16 -8 15 -16 -4 -7 -14 -19 -22 -36 -22 -41 0 -73 -12 -68 -24 5 -13
-32 -14 -51 -2 -7 4 -12 3 -12 -3 0 -5 6 -11 13 -14 6 -2 9 -7 5 -11 -3 -4
-16 -2 -29 4 -19 11 -21 10 -16 -4 13 -33 -3 -14 -50 61 -26 43 -47 82 -45 88
2 5 0 7 -4 3 -8 -8 -127 169 -127 190 0 6 -3 10 -5 7 -3 -3 -43 52 -89 122
-123 188 -148 209 -234 201 -66 -7 -91 -28 -293 -251 -180 -199 -253 -274
-259 -266 -3 2 -65 101 -139 219 -75 118 -166 262 -203 320 -37 58 -83 131
-104 164 -101 163 -148 206 -224 206 -44 0 -96 -22 -124 -52 -11 -12 -52 -75
-91 -138 -38 -63 -106 -176 -152 -250 -46 -74 -127 -207 -180 -295 -160 -266
-192 -315 -206 -315 -7 0 -14 -4 -16 -9 -1 -5 -16 5 -33 22 -16 17 -21 25 -10
17 19 -14 20 -14 2 6 -16 19 -16 23 -2 34 11 10 15 34 15 107 0 86 -2 95 -20
100 -11 3 -20 14 -20 24 0 12 -7 19 -20 19 -13 0 -20 7 -20 20 0 11 -7 20 -15
20 -21 0 -31 30 -14 41 9 6 0 9 -28 9 -24 0 -43 5 -43 10 0 6 11 10 25 10 14
0 25 5 25 10 0 7 -13 8 -35 4 l-35 -6 0 46 c0 45 -1 46 -32 48 -28 1 -27 2 12
8 l45 7 -42 1 c-40 2 -66 17 -76 44 -2 8 -8 9 -13 4 -5 -5 -4 -11 4 -13 6 -3
12 -12 12 -21 0 -13 -4 -12 -19 7 -10 13 -16 33 -13 47 3 19 0 24 -17 24 -14
0 -21 6 -21 20 0 13 -7 20 -19 20 -21 0 -37 40 -20 51 7 4 4 9 -6 13 -23 9
-33 7 -17 -3 11 -7 11 -9 -2 -14 -14 -6 -20 3 -18 24 1 4 -6 6 -16 5 -11 -1
-18 7 -20 22 -2 14 -10 22 -23 22 -12 0 -19 7 -19 20 0 18 -7 20 -60 20 l-60
0 0 45 c0 41 -2 45 -24 45 -13 0 -26 -4 -28 -8 -1 -4 -11 0 -20 10 -10 10 -14
18 -9 18 4 0 6 11 3 25 -4 22 -10 25 -46 25 -30 0 -37 3 -26 10 11 7 7 10 -20
11 -24 1 -28 3 -12 6 31 6 32 53 1 53 -18 0 -20 4 -15 25 4 14 2 25 -4 25 -5
0 -10 -4 -10 -10 0 -5 -4 -10 -10 -10 -14 0 -12 28 3 33 6 2 8 8 4 13 -4 5
-13 2 -18 -6 -8 -11 -12 -12 -16 -2 -2 6 -11 12 -19 12 -10 0 -14 12 -14 40 0
33 -3 40 -20 40 -17 0 -20 7 -20 40 0 33 -3 40 -20 40 -17 0 -20 7 -20 40 0
33 -3 40 -20 40 -17 0 -20 7 -20 40 0 22 5 40 10 40 6 0 10 4 10 10 0 6 -250
10 -700 10 l-700 0 0 -2570z m1463 2283 c-7 -2 -21 -2 -30 0 -10 3 -4 5 12 5
17 0 24 -2 18 -5z m32 -73 c-27 -12 -43 -12 -25 0 8 5 22 9 30 9 10 0 8 -3 -5
-9z m462 -405 c8 -9 13 -19 10 -22 -6 -5 -37 21 -37 31 0 10 11 6 27 -9z m58
-114 c3 -5 2 -12 -3 -15 -5 -3 -9 1 -9 9 0 17 3 19 12 6z m4255 -41 c0 -5 -4
-10 -10 -10 -5 0 -10 5 -10 10 0 6 5 10 10 10 6 0 10 -4 10 -10z m21 -23 c-6
-8 -7 -18 -3 -22 4 -5 2 -5 -5 -1 -14 8 -6 36 9 36 7 0 6 -5 -1 -13z m-4287
-98 c-3 -5 -10 -7 -15 -3 -5 3 -7 10 -3 15 3 5 10 7 15 3 5 -3 7 -10 3 -15z
m4086 -24 c0 -8 -4 -15 -10 -15 -5 0 -10 7 -10 15 0 8 5 15 10 15 6 0 10 -7
10 -15z m-4032 -30 c-3 -3 -9 2 -12 12 -6 14 -5 15 5 6 7 -7 10 -15 7 -18z
m2397 7 c13 -8 90 -119 293 -422 83 -124 191 -281 240 -350 49 -69 88 -126 87
-128 -2 -2 -65 43 -141 99 -145 107 -314 246 -449 369 l-80 72 -48 -52 c-27
-29 -87 -98 -134 -152 -100 -116 -86 -119 -177 31 l-57 94 113 116 c62 64 159
164 216 224 99 103 115 115 137 99z m-2366 -26 c8 -10 9 -16 1 -21 -6 -4 -9
-1 -8 7 2 7 -3 12 -10 10 -8 -1 -11 2 -7 8 8 13 10 13 24 -4z m195 -50 c-3
-15 -8 -25 -11 -23 -2 3 -1 17 3 31 3 15 8 25 11 23 2 -3 1 -17 -3 -31z m-149
5 c3 -5 2 -12 -3 -15 -5 -3 -9 1 -9 9 0 17 3 19 12 6z m94 -107 c5 4 13 1 17
-5 4 -8 3 -9 -4 -5 -16 9 -15 -7 0 -22 7 -7 10 -12 7 -12 -3 0 -23 19 -44 42
-22 24 -28 32 -13 19 14 -13 31 -20 37 -17z m-123 -182 c93 -97 189 -198 213
-224 l43 -47 -131 -218 c-72 -120 -168 -279 -213 -353 l-83 -135 -77 -40 c-42
-22 -80 -37 -83 -33 -7 7 91 238 181 427 35 74 64 142 64 151 0 16 -112 276
-124 287 -6 6 -12 2 -263 -180 -106 -76 -195 -143 -199 -148 -3 -5 -9 -9 -15
-9 -5 0 13 28 39 63 27 34 101 136 164 227 63 91 130 188 149 215 20 28 59 85
87 127 32 48 57 75 65 72 7 -2 90 -84 183 -182z m3661 162 c-3 -3 -12 -4 -19
-1 -8 3 -5 6 6 6 11 1 17 -2 13 -5z m-3446 -65 c11 -11 18 -24 14 -27 -4 -4
-13 2 -22 13 -8 11 -19 19 -24 17 -6 -1 -8 2 -4 8 9 14 12 13 36 -11z m3069
-51 c0 -9 4 -8 11 2 9 13 10 13 6 0 -2 -8 -11 -14 -20 -12 -9 2 -26 -2 -37 -8
-13 -7 -20 -7 -20 0 0 5 7 10 15 10 8 0 15 5 15 10 0 6 7 10 15 10 8 0 15 -6
15 -12z m-3010 -38 c0 -5 -2 -10 -4 -10 -3 0 -8 5 -11 10 -3 6 -1 10 4 10 6 0
11 -4 11 -10z m2644 -111 c-3 -5 -10 -7 -15 -3 -5 3 -7 10 -3 15 3 5 10 7 15
3 5 -3 7 -10 3 -15z m26 -49 c6 -11 8 -20 6 -20 -3 0 -10 9 -16 20 -6 11 -8
20 -6 20 3 0 10 -9 16 -20z m44 -66 c3 -8 2 -12 -4 -9 -6 3 -10 10 -10 16 0
14 7 11 14 -7z m-569 -158 c51 -73 166 -243 254 -377 177 -270 352 -529 357
-529 2 0 -5 19 -15 43 -24 56 -73 216 -69 227 2 4 52 -54 111 -129 206 -259
371 -461 373 -458 2 2 -24 83 -56 182 -33 98 -58 180 -56 183 4 4 268 -335
476 -612 74 -98 144 -190 155 -204 15 -21 -15 -8 -145 60 -91 47 -259 135
-375 196 -115 60 -264 137 -330 172 l-120 63 -292 296 -292 296 -56 260 c-30
143 -58 272 -61 287 -3 14 2 60 10 102 9 41 16 78 16 81 0 17 29 -18 115 -139z
m-2860 -254 c-14 -33 -45 -119 -69 -189 -25 -70 -81 -229 -124 -352 l-80 -224
-83 -60 c-187 -135 -427 -293 -664 -437 -137 -84 -257 -158 -265 -164 -13 -10
-13 -9 0 11 53 77 178 247 260 353 54 69 128 168 165 220 78 109 167 221 172
217 1 -2 -19 -69 -46 -150 -27 -81 -48 -147 -47 -147 11 0 451 542 701 862 55
70 100 126 102 124 2 -1 -8 -30 -22 -64z m653 -549 c92 -70 208 -159 257 -198
50 -38 117 -90 150 -114 108 -79 135 -110 135 -155 0 -35 -6 -46 -53 -90 -29
-28 -113 -87 -187 -130 -168 -99 -247 -171 -297 -273 -20 -40 -38 -73 -40 -73
-3 0 -2 62 2 138 5 94 4 145 -3 158 -28 48 -26 48 -88 15 -79 -42 -150 -102
-222 -186 l-60 -71 64 4 c124 8 144 -13 155 -160 8 -127 34 -180 131 -274 95
-92 166 -134 435 -254 38 -17 55 -31 62 -51 5 -16 7 -30 3 -31 -4 -2 -467 -1
-1029 2 l-1023 5 -26 27 c-36 36 -36 80 0 116 l26 27 631 5 631 5 29 33 c32
36 36 60 15 101 -31 59 14 56 -785 61 -720 5 -737 5 -771 26 -92 54 -107 170
-30 231 8 7 101 61 205 120 105 58 233 132 285 163 52 31 126 73 164 93 61 34
66 35 50 14 -151 -197 -345 -432 -378 -459 -11 -9 -18 -19 -16 -22 6 -6 188
65 371 145 76 32 144 59 153 59 14 0 16 -16 16 -116 l0 -116 35 20 c19 12 82
57 140 102 84 63 109 78 123 71 9 -5 69 -48 132 -95 63 -46 116 -83 118 -82 1
2 -10 29 -25 62 -21 47 -27 77 -31 159 -4 89 -1 109 22 179 15 43 43 103 63
134 85 127 268 222 432 222 60 0 63 1 49 18 -8 9 -45 72 -83 140 -37 67 -70
124 -74 126 -4 3 -30 -11 -58 -30 -28 -19 -149 -87 -269 -153 -121 -65 -254
-139 -297 -164 l-77 -45 92 98 c296 314 563 590 570 590 5 0 84 -57 176 -127z
m3451 -1589 c42 -35 43 -84 2 -125 l-30 -29 -661 2 -662 3 -29 33 c-37 41 -38
84 -4 117 l24 25 665 0 664 0 31 -26z m-3641 -340 c33 -23 45 -60 31 -101 -6
-18 -19 -38 -29 -43 -10 -6 -84 -10 -165 -10 -142 0 -147 1 -170 25 -17 16
-25 35 -25 60 0 25 8 44 25 60 23 24 29 25 167 25 115 0 148 -3 166 -16z
m2791 -10 c30 -38 28 -94 -5 -125 -24 -23 -33 -24 -173 -27 -177 -4 -208 2
-239 48 -27 41 -23 74 14 108 24 21 33 22 204 22 l179 0 20 -26z"/>
<path d="M1590 4790 c-12 -7 -10 -9 7 -7 12 0 19 5 17 9 -6 10 -6 10 -24 -2z"/>
<path d="M1717 4597 c-8 -21 1 -25 38 -16 30 7 30 7 3 8 -14 0 -28 6 -30 13
-3 8 -7 6 -11 -5z"/>
<path d="M6267 4299 c7 -7 15 -10 18 -7 3 3 -2 9 -12 12 -14 6 -15 5 -6 -5z"/>
<path d="M2308 4100 c-3 -16 -1 -30 4 -30 4 0 8 14 8 30 0 17 -2 30 -4 30 -2
0 -6 -13 -8 -30z"/>
<path d="M2345 4020 c-13 -6 -15 -9 -5 -9 8 0 22 4 30 9 18 12 2 12 -25 0z"/>
<path d="M2410 3940 c0 -5 7 -10 15 -10 8 0 15 -4 15 -10 0 -5 5 -10 10 -10 6
0 5 8 -2 20 -13 21 -38 27 -38 10z"/>
<path d="M5430 3800 c0 -5 5 -10 10 -10 6 0 10 5 10 10 0 6 -4 10 -10 10 -5 0
-10 -4 -10 -10z"/>
<path d="M4620 1858 c0 -136 -94 -325 -220 -442 -27 -25 -44 -46 -38 -46 32 0
166 48 265 95 l113 54 15 -53 c9 -29 20 -79 25 -111 5 -32 11 -60 14 -62 2 -2
51 25 108 60 56 36 113 68 125 71 12 4 46 0 75 -8 43 -12 328 -30 328 -21 0 2
-38 15 -85 29 -227 71 -379 168 -606 384 -59 56 -110 102 -113 102 -3 0 -6
-24 -6 -52z"/>
</g>
</svg>
